<svg version="1.1" xmlns="http://www.w3.org/2000/svg" viewBox="0 0 1110.9 1110.9">
<style type="text/css">
	.st0{fill:#011E41;}
	.st1{fill:#EE2435;}
	.st2{fill:#454747;}
	.st3{fill:#FFFFFF;}
	.st4{fill:#231F20;}
</style>
<rect x="0" class="st3" width="1110.9" height="1110.9"/>
<g>
	<path class="st0" d="M409.7,818.4v92h-92v-92H409.7z"/>
	<path class="st0" d="M409.7,718.2v92h-92v-92H409.7z"/>
	<path class="st0" d="M409.7,617.9v92h-92v-92H409.7z"/>
	<path class="st0" d="M710.4,818.4v92h-92v-92H710.4z"/>
	<path class="st0" d="M409.7,517.7v92h-92v-92H409.7z"/>
	<path class="st0" d="M710.4,718.2v92h-92v-92H710.4z"/>
	<path class="st0" d="M409.7,417.5v92h-92v-92H409.7z"/>
	<path class="st0" d="M710.4,617.9v92h-92v-92H710.4z"/>
	<path class="st0" d="M510,417.5v92h-92v-92H510z"/>
	<path class="st0" d="M1010.6,818.4v92h-92v-92H1010.6z"/>
	<path class="st0" d="M710.4,517.7v92h-92v-92H710.4z"/>
	<path class="st0" d="M610.2,417.5v92h-92v-92H610.2z"/>
	<path class="st0" d="M1010.6,718.2v92h-92v-92H1010.6z"/>
	<path class="st0" d="M710.4,417.5v92h-92v-92H710.4z"/>
	<path class="st0" d="M1010.6,617.9v92h-92v-92H1010.6z"/>
	<path class="st0" d="M810.1,417.5v92h-92v-92H810.1z"/>
	<path class="st0" d="M1010.6,517.7v92h-92v-92H1010.6z"/>
	<path class="st0" d="M910.3,417.5v92h-92v-92H910.3z"/>
	<path class="st0" d="M192.2,818.4v92h-92v-92H192.2z"/>
	<path class="st0" d="M192.2,718.2v92h-92v-92H192.2z"/>
	<path class="st0" d="M192.2,617.9v92h-92v-92H192.2z"/>
	<path class="st0" d="M192.2,517.7v92h-92v-92H192.2z"/>
	<path class="st0" d="M192.2,417.5v92h-92v-92H192.2z"/>
	<path class="st1" d="M192.2,200.5v92h-92v-92H192.2z"/>
</g>
</svg>
