<svg xmlns="http://www.w3.org/2000/svg" viewBox="0 0 800 500" width="100%" height="auto">
<defs>
  <style>
    text { font-family: Arial, Helvetica, sans-serif; }
  </style>
  <linearGradient id="headerGrad" x1="0" y1="0" x2="1" y2="0">
    <stop offset="0%" stop-color="#D32F2F"/>
    <stop offset="100%" stop-color="#B71C1C"/>
  </linearGradient>
</defs>
<rect x="0" y="0" width="800" height="500" fill="#FAFAFA" rx="8"/>
<rect x="0" y="0" width="800" height="55" fill="url(#headerGrad)" rx="8"/>
<rect x="0" y="27" width="800" height="28" fill="url(#headerGrad)"/>
<text x="400" y="36" text-anchor="middle" fill="#FFF" font-size="18" font-weight="bold">Matriks Identifikasi Gap Informasi</text>

<g transform="translate(20, 75)">
  <!-- Table header -->
  <rect x="0" y="0" width="150" height="36" fill="#D32F2F" rx="4"/>
  <rect x="150" y="0" width="220" height="36" fill="#D32F2F"/>
  <rect x="370" y="0" width="75" height="36" fill="#D32F2F"/>
  <rect x="445" y="0" width="185" height="36" fill="#D32F2F"/>
  <rect x="630" y="0" width="130" height="36" fill="#D32F2F" rx="4"/>
  <line x1="630" y1="0" x2="630" y2="36" stroke="#B71C1C" stroke-width="1"/>
  <text x="75" y="23" text-anchor="middle" fill="#FFF" font-size="13" font-weight="bold">Sektor</text>
  <text x="260" y="23" text-anchor="middle" fill="#FFF" font-size="13" font-weight="bold">Informasi Dibutuhkan</text>
  <text x="407" y="23" text-anchor="middle" fill="#FFF" font-size="13" font-weight="bold">Tersedia</text>
  <text x="537" y="23" text-anchor="middle" fill="#FFF" font-size="13" font-weight="bold">Sumber</text>
  <text x="695" y="23" text-anchor="middle" fill="#FFF" font-size="13" font-weight="bold">Gap</text>

  <!-- Row 1: Kesehatan -->
  <rect x="0" y="40" width="150" height="50" fill="#F5F5F5" stroke="#E0E0E0" stroke-width="1"/>
  <rect x="150" y="40" width="220" height="50" fill="#FFF" stroke="#E0E0E0" stroke-width="1"/>
  <rect x="370" y="40" width="75" height="50" fill="#F5F5F5" stroke="#E0E0E0" stroke-width="1"/>
  <rect x="445" y="40" width="185" height="50" fill="#FFF" stroke="#E0E0E0" stroke-width="1"/>
  <rect x="630" y="40" width="130" height="50" fill="#F5F5F5" stroke="#E0E0E0" stroke-width="1"/>
  <text x="20" y="70" fill="#333" font-size="14" font-weight="bold">Kesehatan</text>
  <text x="170" y="60" fill="#333" font-size="12">Jumlah korban luka</text>
  <text x="170" y="78" fill="#777" font-size="11">Ketersediaan obat &amp; tenaga medis</text>
  <circle cx="407" cy="65" r="12" fill="#4CAF50"/>
  <text x="407" y="70" text-anchor="middle" fill="#FFF" font-size="13" font-weight="bold">Y</text>
  <text x="460" y="70" fill="#333" font-size="12">RS Rujukan, Poskesdes</text>
  <rect x="645" y="53" width="100" height="24" rx="12" fill="#E8F5E9"/>
  <text x="695" y="69" text-anchor="middle" fill="#2E7D32" font-size="11">Terpenuhi</text>

  <!-- Row 2: Air Bersih -->
  <rect x="0" y="92" width="150" height="50" fill="#FFF" stroke="#E0E0E0" stroke-width="1"/>
  <rect x="150" y="92" width="220" height="50" fill="#F5F5F5" stroke="#E0E0E0" stroke-width="1"/>
  <rect x="370" y="92" width="75" height="50" fill="#FFF" stroke="#E0E0E0" stroke-width="1"/>
  <rect x="445" y="92" width="185" height="50" fill="#F5F5F5" stroke="#E0E0E0" stroke-width="1"/>
  <rect x="630" y="92" width="130" height="50" fill="#FFF" stroke="#E0E0E0" stroke-width="1"/>
  <text x="20" y="122" fill="#333" font-size="14" font-weight="bold">Air Bersih</text>
  <text x="170" y="110" fill="#333" font-size="12">Sumber air layak</text>
  <text x="170" y="128" fill="#777" font-size="11">Kapasitas distribusi harian</text>
  <circle cx="407" cy="117" r="12" fill="#4CAF50"/>
  <text x="407" y="122" text-anchor="middle" fill="#FFF" font-size="13" font-weight="bold">Y</text>
  <text x="460" y="122" fill="#333" font-size="12">PDAM, Sumur Bor, Tanki</text>
  <rect x="645" y="105" width="100" height="24" rx="12" fill="#E8F5E9"/>
  <text x="695" y="121" text-anchor="middle" fill="#2E7D32" font-size="11">Terpenuhi</text>

  <!-- Row 3: Sanitasi -->
  <rect x="0" y="144" width="150" height="50" fill="#F5F5F5" stroke="#E0E0E0" stroke-width="1"/>
  <rect x="150" y="144" width="220" height="50" fill="#FFF" stroke="#E0E0E0" stroke-width="1"/>
  <rect x="370" y="144" width="75" height="50" fill="#F5F5F5" stroke="#E0E0E0" stroke-width="1"/>
  <rect x="445" y="144" width="185" height="50" fill="#FFF" stroke="#E0E0E0" stroke-width="1"/>
  <rect x="630" y="144" width="130" height="50" fill="#F5F5F5" stroke="#E0E0E0" stroke-width="1"/>
  <text x="20" y="174" fill="#333" font-size="14" font-weight="bold">Sanitasi</text>
  <text x="170" y="162" fill="#333" font-size="12">Akses jamban layak</text>
  <text x="170" y="180" fill="#777" font-size="11">Pengelolaan limbah</text>
  <text x="407" y="174" text-anchor="middle" fill="#F44336" font-size="18" font-weight="bold">✗</text>
  <text x="460" y="174" fill="#333" font-size="12">Belum ada data</text>
  <rect x="645" y="157" width="100" height="24" rx="12" fill="#FFEBEE"/>
  <text x="695" y="173" text-anchor="middle" fill="#C62828" font-size="11">Perlu Dicari</text>

  <!-- Row 4: Shelter -->
  <rect x="0" y="196" width="150" height="50" fill="#FFF" stroke="#E0E0E0" stroke-width="1"/>
  <rect x="150" y="196" width="220" height="50" fill="#F5F5F5" stroke="#E0E0E0" stroke-width="1"/>
  <rect x="370" y="196" width="75" height="50" fill="#FFF" stroke="#E0E0E0" stroke-width="1"/>
  <rect x="445" y="196" width="185" height="50" fill="#F5F5F5" stroke="#E0E0E0" stroke-width="1"/>
  <rect x="630" y="196" width="130" height="50" fill="#FFF" stroke="#E0E0E0" stroke-width="1"/>
  <text x="20" y="226" fill="#333" font-size="14" font-weight="bold">Shelter</text>
  <text x="170" y="214" fill="#333" font-size="12">Jumlah pengungsi</text>
  <text x="170" y="232" fill="#777" font-size="11">Kondisi tempat tinggal sementara</text>
  <circle cx="407" cy="221" r="12" fill="#4CAF50"/>
  <text x="407" y="226" text-anchor="middle" fill="#FFF" font-size="13" font-weight="bold">Y</text>
  <text x="460" y="226" fill="#333" font-size="12">Posko, Data BPBD</text>
  <rect x="645" y="209" width="100" height="24" rx="12" fill="#E8F5E9"/>
  <text x="695" y="225" text-anchor="middle" fill="#2E7D32" font-size="11">Terpenuhi</text>

  <!-- Row 5: Pangan -->
  <rect x="0" y="248" width="150" height="50" fill="#F5F5F5" stroke="#E0E0E0" stroke-width="1"/>
  <rect x="150" y="248" width="220" height="50" fill="#FFF" stroke="#E0E0E0" stroke-width="1"/>
  <rect x="370" y="248" width="75" height="50" fill="#F5F5F5" stroke="#E0E0E0" stroke-width="1"/>
  <rect x="445" y="248" width="185" height="50" fill="#FFF" stroke="#E0E0E0" stroke-width="1"/>
  <rect x="630" y="248" width="130" height="50" fill="#F5F5F5" stroke="#E0E0E0" stroke-width="1"/>
  <text x="20" y="278" fill="#333" font-size="14" font-weight="bold">Pangan</text>
  <text x="170" y="266" fill="#333" font-size="12">Stok beras &amp; lauk</text>
  <text x="170" y="284" fill="#777" font-size="11">Rantai pasok terganggu</text>
  <text x="407" y="278" text-anchor="middle" fill="#F44336" font-size="18" font-weight="bold">✗</text>
  <text x="460" y="278" fill="#333" font-size="12">Belum diverifikasi</text>
  <rect x="645" y="261" width="100" height="24" rx="12" fill="#FFEBEE"/>
  <text x="695" y="277" text-anchor="middle" fill="#C62828" font-size="11">Gap Kritis</text>

  <!-- Row 6: Logistik -->
  <rect x="0" y="300" width="150" height="50" fill="#FFF" stroke="#E0E0E0" stroke-width="1"/>
  <rect x="150" y="300" width="220" height="50" fill="#F5F5F5" stroke="#E0E0E0" stroke-width="1"/>
  <rect x="370" y="300" width="75" height="50" fill="#FFF" stroke="#E0E0E0" stroke-width="1"/>
  <rect x="445" y="300" width="185" height="50" fill="#F5F5F5" stroke="#E0E0E0" stroke-width="1"/>
  <rect x="630" y="300" width="130" height="50" fill="#FFF" stroke="#E0E0E0" stroke-width="1"/>
  <text x="20" y="330" fill="#333" font-size="14" font-weight="bold">Logistik</text>
  <text x="170" y="318" fill="#333" font-size="12">Ketersediaan transportasi</text>
  <text x="170" y="336" fill="#777" font-size="11">Gudang &amp; distribusi</text>
  <text x="407" y="330" text-anchor="middle" fill="#F44336" font-size="18" font-weight="bold">✗</text>
  <text x="460" y="330" fill="#333" font-size="12">Data parsial</text>
  <rect x="645" y="313" width="100" height="24" rx="12" fill="#FFF3E0"/>
  <text x="695" y="329" text-anchor="middle" fill="#E65100" font-size="11">Parsial</text>
</g>

<g transform="translate(30, 430)">
  <rect x="0" y="0" width="14" height="14" rx="3" fill="#4CAF50"/>
  <text x="20" y="12" fill="#555" font-size="11">Tersedia</text>
  <rect x="100" y="0" width="14" height="14" rx="3" fill="#F44336"/>
  <text x="120" y="12" fill="#555" font-size="11">Gap / Tidak Tersedia</text>
  <rect x="270" y="0" width="14" height="14" rx="3" fill="#E65100"/>
  <text x="290" y="12" fill="#555" font-size="11">Parsial / Perlu Verifikasi</text>
</g>
</svg>