<svg xmlns="http://www.w3.org/2000/svg" viewBox="0 0 800 500" width="100%" height="auto">
<defs>
  <style>
    text { font-family: Arial, Helvetica, sans-serif; }
  </style>
  <linearGradient id="headerGrad" x1="0" y1="0" x2="1" y2="0">
    <stop offset="0%" stop-color="#D32F2F"/>
    <stop offset="100%" stop-color="#B71C1C"/>
  </linearGradient>
  <linearGradient id="bar80" x1="0" y1="0" x2="1" y2="0">
    <stop offset="0%" stop-color="#D32F2F"/>
    <stop offset="100%" stop-color="#E65100"/>
  </linearGradient>
  <linearGradient id="bar75" x1="0" y1="0" x2="1" y2="0">
    <stop offset="0%" stop-color="#D32F2F"/>
    <stop offset="100%" stop-color="#EF6C00"/>
  </linearGradient>
  <linearGradient id="bar70" x1="0" y1="0" x2="1" y2="0">
    <stop offset="0%" stop-color="#E53935"/>
    <stop offset="100%" stop-color="#F57C00"/>
  </linearGradient>
  <linearGradient id="bar60" x1="0" y1="0" x2="1" y2="0">
    <stop offset="0%" stop-color="#E53935"/>
    <stop offset="100%" stop-color="#FF9800"/>
  </linearGradient>
  <linearGradient id="bar50" x1="0" y1="0" x2="1" y2="0">
    <stop offset="0%" stop-color="#F44336"/>
    <stop offset="100%" stop-color="#FFA726"/>
  </linearGradient>
  <linearGradient id="bar45" x1="0" y1="0" x2="1" y2="0">
    <stop offset="0%" stop-color="#F44336"/>
    <stop offset="100%" stop-color="#FFB74D"/>
  </linearGradient>
</defs>
<rect x="0" y="0" width="800" height="500" fill="#FAFAFA" rx="8"/>
<rect x="0" y="0" width="800" height="55" fill="url(#headerGrad)" rx="8"/>
<rect x="0" y="27" width="800" height="28" fill="url(#headerGrad)"/>
<text x="400" y="36" text-anchor="middle" fill="#FFF" font-size="18" font-weight="bold">Rasio Kebutuhan Sektoral — Penduduk Terdampak</text>

<g transform="translate(60, 95)">
  <!-- Grid lines -->
  <line x1="0" y1="0" x2="0" y2="340" stroke="#E0E0E0" stroke-width="1"/>
  <line x1="140" y1="0" x2="140" y2="340" stroke="#E0E0E0" stroke-width="1"/>
  <line x1="280" y1="0" x2="280" y2="340" stroke="#E0E0E0" stroke-width="1" stroke-dasharray="4,4"/>
  <line x1="420" y1="0" x2="420" y2="340" stroke="#E0E0E0" stroke-width="1" stroke-dasharray="4,4"/>
  <line x1="560" y1="0" x2="560" y2="340" stroke="#E0E0E0" stroke-width="1" stroke-dasharray="4,4"/>
  <line x1="700" y1="0" x2="700" y2="340" stroke="#E0E0E0" stroke-width="1" stroke-dasharray="4,4"/>
  <text x="140" y="360" text-anchor="middle" fill="#999" font-size="11">20%</text>
  <text x="280" y="360" text-anchor="middle" fill="#999" font-size="11">40%</text>
  <text x="420" y="360" text-anchor="middle" fill="#999" font-size="11">60%</text>
  <text x="560" y="360" text-anchor="middle" fill="#999" font-size="11">80%</text>
  <text x="700" y="360" text-anchor="middle" fill="#999" font-size="11">100%</text>

  <!-- Air Bersih: 80% -->
  <text x="0" y="22" fill="#333" font-size="14" font-weight="bold">Air Bersih</text>
  <rect x="165" y="8" width="485" height="24" rx="12" fill="#FFEBEE"/>
  <rect x="165" y="8" width="485" height="24" rx="12" fill="url(#bar80)"/>
  <text x="660" y="25" fill="#FFF" font-size="13" font-weight="bold">80%</text>

  <!-- Kesehatan: 75% -->
  <text x="0" y="64" fill="#333" font-size="14" font-weight="bold">Kesehatan</text>
  <rect x="165" y="50" width="485" height="24" rx="12" fill="#FFEBEE"/>
  <rect x="165" y="50" width="455" height="24" rx="12" fill="url(#bar75)"/>
  <text x="630" y="67" fill="#FFF" font-size="13" font-weight="bold">75%</text>

  <!-- Pangan: 70% -->
  <text x="0" y="106" fill="#333" font-size="14" font-weight="bold">Pangan</text>
  <rect x="165" y="92" width="485" height="24" rx="12" fill="#FFEBEE"/>
  <rect x="165" y="92" width="425" height="24" rx="12" fill="url(#bar70)"/>
  <text x="600" y="109" fill="#FFF" font-size="13" font-weight="bold">70%</text>

  <!-- Sanitasi: 60% -->
  <text x="0" y="148" fill="#333" font-size="14" font-weight="bold">Sanitasi</text>
  <rect x="165" y="134" width="485" height="24" rx="12" fill="#FFEBEE"/>
  <rect x="165" y="134" width="365" height="24" rx="12" fill="url(#bar60)"/>
  <text x="540" y="151" fill="#FFF" font-size="13" font-weight="bold">60%</text>

  <!-- Logistik: 50% -->
  <text x="0" y="190" fill="#333" font-size="14" font-weight="bold">Logistik</text>
  <rect x="165" y="176" width="485" height="24" rx="12" fill="#FFEBEE"/>
  <rect x="165" y="176" width="305" height="24" rx="12" fill="url(#bar50)"/>
  <text x="480" y="193" fill="#FFF" font-size="13" font-weight="bold">50%</text>

  <!-- Shelter: 45% -->
  <text x="0" y="232" fill="#333" font-size="14" font-weight="bold">Shelter</text>
  <rect x="165" y="218" width="485" height="24" rx="12" fill="#FFEBEE"/>
  <rect x="165" y="218" width="275" height="24" rx="12" fill="url(#bar45)"/>
  <text x="450" y="235" fill="#FFF" font-size="13" font-weight="bold">45%</text>
</g>

<g transform="translate(60, 430)">
  <line x1="0" y1="0" x2="680" y2="0" stroke="#E0E0E0" stroke-width="1"/>
  <text x="340" y="20" text-anchor="middle" fill="#9E9E9E" font-size="11">Estimasi kebutuhan berdasarkan data awal dan proyeksi populasi terdampak (n = 12.500)</text>
</g>
</svg>