<?xml version="1.0" encoding="utf-8"?>
<!-- Generator: Adobe Illustrator 25.3.1, SVG Export Plug-In . SVG Version: 6.00 Build 0)  -->
<svg version="1.1"
	 id="svg1" xmlns:inkscape="http://www.inkscape.org/namespaces/inkscape" xmlns:sodipodi="http://sodipodi.sourceforge.net/DTD/sodipodi-0.dtd" xmlns:svg="http://www.w3.org/2000/svg"
	 xmlns="http://www.w3.org/2000/svg" xmlns:xlink="http://www.w3.org/1999/xlink" x="0px" y="0px" viewBox="0 0 793.7 311.8"
	 style="enable-background:new 0 0 793.7 311.8;" xml:space="preserve">
<style type="text/css">
	.st0{fill:#011E41;}
	.st1{fill:#EE2435;}
	.st2{fill:#454747;}
	.st3{fill:#FFFFFF;}
	.st4{fill:#231F20;}
</style>
<path id="path63_5_" class="st3" d="M752.3,200.4v25.2H727v-25.2H752.3z"/>
<path id="path62_6_" class="st3" d="M752.3,173v25.2H727V173H752.3z"/>
<path id="path61_6_" class="st3" d="M752.3,145.6v25.2H727v-25.2H752.3z"/>
<path id="path60_6_" class="st3" d="M752.3,118.2v25.2H727v-25.2H752.3z"/>
<path id="path59_6_" class="st3" d="M752.3,90.7V116H727V90.7H752.3z"/>
<path id="path58_6_" class="st3" d="M752.3,31.3v25.2H727V31.3H752.3z"/>
<path id="path57_5_" class="st3" d="M523.7,200.4v25.2h-25.2v-25.2H523.7z"/>
<path id="path56_6_" class="st3" d="M523.7,173v25.2h-25.2V173H523.7z"/>
<path id="path55_6_" class="st3" d="M523.7,145.6v25.2h-25.2v-25.2H523.7z"/>
<path id="path54_6_" class="st3" d="M606,200.4v25.2h-25.2v-25.2H606z"/>
<path id="path53_6_" class="st3" d="M523.7,118.2v25.2h-25.2v-25.2H523.7z"/>
<path id="path52_6_" class="st3" d="M606,173v25.2h-25.2V173H606z"/>
<path id="path51_5_" class="st3" d="M523.7,90.7V116h-25.2V90.7H523.7z"/>
<path id="path50_6_" class="st3" d="M606,145.6v25.2h-25.2v-25.2H606z"/>
<path id="path49_6_" class="st3" d="M551.2,90.7V116h-25.2V90.7H551.2z"/>
<path id="path48_5_" class="st3" d="M688.3,200.4v25.2H663v-25.2H688.3z"/>
<path id="path47_6_" class="st3" d="M606,118.2v25.2h-25.2v-25.2H606z"/>
<path id="path46_6_" class="st3" d="M578.6,90.7V116h-25.2V90.7H578.6z"/>
<path id="path45_6_" class="st3" d="M688.3,173v25.2H663V173H688.3z"/>
<path id="path44_6_" class="st3" d="M606,90.7V116h-25.2V90.7H606z"/>
<path id="path43_6_" class="st3" d="M688.3,145.6v25.2H663v-25.2H688.3z"/>
<path id="path42_6_" class="st3" d="M633.4,90.7V116h-25.2V90.7H633.4z"/>
<path id="path41_6_" class="st3" d="M688.3,118.2v25.2H663v-25.2H688.3z"/>
<path id="path40_6_" class="st3" d="M660.8,90.7V116h-25.2V90.7H660.8z"/>
<path id="path39_5_" class="st3" d="M354.6,255.3v25.2h-25.2v-25.2H354.6z"/>
<path id="path38_5_" class="st3" d="M354.6,227.8v25.2h-25.2v-25.2H354.6z"/>
<path id="path37_5_" class="st3" d="M354.6,200.4v25.2h-25.2v-25.2H354.6z"/>
<path id="path36_6_" class="st3" d="M382,200.4v25.2h-25.2v-25.2H382z"/>
<path id="path35_6_" class="st3" d="M354.6,173v25.2h-25.2V173H354.6z"/>
<path id="path34_6_" class="st3" d="M409.5,200.4v25.2h-25.2v-25.2H409.5z"/>
<path id="path33_6_" class="st3" d="M354.6,145.6v25.2h-25.2v-25.2H354.6z"/>
<path id="path32_6_" class="st3" d="M436.9,200.4v25.2h-25.2v-25.2H436.9z"/>
<path id="path31_6_" class="st3" d="M354.6,118.2v25.2h-25.2v-25.2H354.6z"/>
<path id="path30_7_" class="st3" d="M354.6,90.7V116h-25.2V90.7H354.6z"/>
<path id="path29_8_" class="st3" d="M464.3,173v25.2h-25.2V173H464.3z"/>
<path id="path28_6_" class="st3" d="M382,90.7V116h-25.2V90.7H382z"/>
<path id="path27_5_" class="st3" d="M464.3,145.6v25.2h-25.2v-25.2H464.3z"/>
<path id="path26_6_" class="st3" d="M409.5,90.7V116h-25.2V90.7H409.5z"/>
<path id="path25_5_" class="st3" d="M464.3,118.2v25.2h-25.2v-25.2H464.3z"/>
<path id="path24_6_" class="st3" d="M436.9,90.7V116h-25.2V90.7H436.9z"/>
<path id="path23_6_" class="st3" d="M126.1,200.4v25.2h-25.2v-25.2H126.1z"/>
<path id="path22_6_" class="st3" d="M126.1,173v25.2h-25.2V173H126.1z"/>
<path id="path21_6_" class="st3" d="M126.1,145.6v25.2h-25.2v-25.2H126.1z"/>
<path id="path20_6_" class="st3" d="M208.4,200.4v25.2h-25.2v-25.2H208.4z"/>
<path id="path19_6_" class="st3" d="M126.1,118.2v25.2h-25.2v-25.2H126.1z"/>
<path id="path18_6_" class="st3" d="M208.4,173v25.2h-25.2V173H208.4z"/>
<path id="path17_6_" class="st3" d="M126.1,90.7V116h-25.2V90.7H126.1z"/>
<path id="path16_6_" class="st3" d="M208.4,145.6v25.2h-25.2v-25.2H208.4z"/>
<path id="path15_6_" class="st3" d="M153.5,90.7V116h-25.2V90.7H153.5z"/>
<path id="path14_6_" class="st3" d="M290.6,200.4v25.2h-25.2v-25.2H290.6z"/>
<path id="path13_6_" class="st3" d="M208.4,118.2v25.2h-25.2v-25.2H208.4z"/>
<path id="path12_6_" class="st3" d="M180.9,90.7V116h-25.2V90.7H180.9z"/>
<path id="path11_6_" class="st3" d="M290.6,173v25.2h-25.2V173H290.6z"/>
<path id="path10_6_" class="st3" d="M208.4,90.7V116h-25.2V90.7H208.4z"/>
<path id="path9_6_" class="st3" d="M290.6,145.6v25.2h-25.2v-25.2H290.6z"/>
<path id="path8_6_" class="st3" d="M235.8,90.7V116h-25.2V90.7H235.8z"/>
<path id="path7_6_" class="st3" d="M290.6,118.2v25.2h-25.2v-25.2H290.6z"/>
<path id="path6_6_" class="st3" d="M263.2,90.7V116H238V90.7H263.2z"/>
<path id="path5_6_" class="st3" d="M66.7,200.4v25.2H41.4v-25.2H66.7z"/>
<path id="path4_6_" class="st3" d="M66.7,173v25.2H41.4V173H66.7z"/>
<path id="path3_6_" class="st3" d="M66.7,145.6v25.2H41.4v-25.2H66.7z"/>
<path id="path2_6_" class="st3" d="M66.7,118.2v25.2H41.4v-25.2H66.7z"/>
<path id="path1_6_" class="st3" d="M66.7,90.7V116H41.4V90.7H66.7z"/>
<path id="text1_6_" class="st3" d="M66.7,31.3v25.2H41.4V31.3H66.7z"/>
</svg>
