<?xml version="1.0" encoding="utf-8"?>
<!-- Generator: Adobe Illustrator 25.3.1, SVG Export Plug-In . SVG Version: 6.00 Build 0)  -->
<svg version="1.1"
	 id="svg8" xmlns:cc="http://creativecommons.org/ns#" xmlns:dc="http://purl.org/dc/elements/1.1/" xmlns:inkscape="http://www.inkscape.org/namespaces/inkscape" xmlns:rdf="http://www.w3.org/1999/02/22-rdf-syntax-ns#" xmlns:sodipodi="http://sodipodi.sourceforge.net/DTD/sodipodi-0.dtd" xmlns:svg="http://www.w3.org/2000/svg"
	 xmlns="http://www.w3.org/2000/svg" xmlns:xlink="http://www.w3.org/1999/xlink" x="0px" y="0px" viewBox="0 0 587.7 174.2"
	 style="enable-background:new 0 0 587.7 174.2;" xml:space="preserve">
<style type="text/css">
	.st0{fill:#FFFFFF;}
	.st1{fill-rule:evenodd;clip-rule:evenodd;}
	.st2{fill:#E20A16;}
	.st3{fill:#F5333F;}
	.st4{fill:#333132;}
</style>
<g>
	<rect class="st0" width="587.7" height="174.2"/>
	<g>
		<polygon class="st3" points="73,100.5 42.4,100.5 42.4,74.2 73,74.2 73,74.2 73,43.5 99.3,43.5 99.3,74.2 99.3,74.2 130,74.2 
			130,100.5 99.3,100.5 99.3,100.5 99.3,131.1 73,131.1 73,100.5 		"/>
		<g>
			<path class="st3" d="M170.6,86.9c0-20.4,16.6-37,37-37c4.4,0,8.8,0.8,12.9,2.3c-19.2-15.2-47.1-11.9-62.3,7.3
				c-15.2,19.2-11.9,47.1,7.3,62.3c16.4,13,39.7,12.7,55.8-0.6c-19,7.5-40.5-1.7-48-20.7C171.5,96.2,170.6,91.5,170.6,86.9"/>
			<path class="st4" d="M507.3,131.4c6.9,0.1,13.8-1.2,20.2-3.9c5.9-2.5,11.1-6.4,15.2-11.4L530,104.3c-5.8,6.8-13,10.2-21.6,10.2
				c-5,0.1-9.9-1.1-14.2-3.5c-4.1-2.3-7.5-5.6-9.7-9.7c-4.7-8.9-4.7-19.5,0-28.5c2.3-4.1,5.6-7.5,9.7-9.7c4.4-2.4,9.3-3.6,14.2-3.5
				c8.6,0,15.8,3.4,21.6,10.1l12.8-11.8c-4.1-4.9-9.3-8.8-15.1-11.3c-14.2-5.8-30.3-5.1-44,1.8c-6.9,3.6-12.7,9.1-16.7,15.8
				c-8.1,14.2-8.1,31.6,0,45.7c4,6.7,9.8,12.2,16.7,15.8C490.8,129.6,499,131.6,507.3,131.4 M427.9,75.3c0,4.7-1.6,8.4-4.7,11
				c-3.1,2.6-7.6,3.9-13.6,3.9h-16.2v-30h16.2c6,0,10.5,1.3,13.6,3.9C426.4,66.7,427.9,70.4,427.9,75.3 M449.6,129.9l-19.3-27.6
				c11-4.4,18.1-15.2,17.7-27.1c0.2-5.8-1.4-11.6-4.5-16.6c-3.2-4.8-7.7-8.5-12.9-10.8c-5.6-2.5-12.2-3.8-19.8-3.8h-37.2v85.8h19.9
				V106h18.3l16.6,23.9H449.6z M356.4,60V44.1h-64.9v85.8h19.9V98.7h39.7V82.7h-39.7V60H356.4z M251.3,129.9h19.9V44.1h-19.9V129.9z
				"/>
		</g>
	</g>
</g>
</svg>
