<svg version="1.1" xmlns="http://www.w3.org/2000/svg" viewBox="0 0 793.7 311.8">
<style type="text/css">
	.st0{fill:#011E41;}
	.st1{fill:#EE2435;}
</style>
<path class="st0" d="M752.3,200.4v25.2H727v-25.2H752.3z"/>
<path class="st0" d="M752.3,173v25.2H727V173H752.3z"/>
<path class="st0" d="M752.3,145.6v25.2H727v-25.2H752.3z"/>
<path class="st0" d="M752.3,118.2v25.2H727v-25.2H752.3z"/>
<path class="st0" d="M752.3,90.7V116H727V90.7H752.3z"/>
<path class="st0" d="M752.3,31.3v25.2H727V31.3H752.3z"/>
<path class="st0" d="M523.7,200.4v25.2h-25.2v-25.2H523.7z"/>
<path class="st0" d="M523.7,173v25.2h-25.2V173H523.7z"/>
<path class="st0" d="M523.7,145.6v25.2h-25.2v-25.2H523.7z"/>
<path class="st0" d="M606,200.4v25.2h-25.2v-25.2H606z"/>
<path class="st0" d="M523.7,118.2v25.2h-25.2v-25.2H523.7z"/>
<path class="st0" d="M606,173v25.2h-25.2V173H606z"/>
<path class="st0" d="M523.7,90.7V116h-25.2V90.7H523.7z"/>
<path class="st0" d="M606,145.6v25.2h-25.2v-25.2H606z"/>
<path class="st0" d="M551.2,90.7V116h-25.2V90.7H551.2z"/>
<path class="st0" d="M688.3,200.4v25.2H663v-25.2H688.3z"/>
<path class="st0" d="M606,118.2v25.2h-25.2v-25.2H606z"/>
<path class="st0" d="M578.6,90.7V116h-25.2V90.7H578.6z"/>
<path class="st0" d="M688.3,173v25.2H663V173H688.3z"/>
<path class="st0" d="M606,90.7V116h-25.2V90.7H606z"/>
<path class="st0" d="M688.3,145.6v25.2H663v-25.2H688.3z"/>
<path class="st0" d="M633.4,90.7V116h-25.2V90.7H633.4z"/>
<path class="st0" d="M688.3,118.2v25.2H663v-25.2H688.3z"/>
<path class="st0" d="M660.8,90.7V116h-25.2V90.7H660.8z"/>
<path class="st0" d="M354.6,255.3v25.2h-25.2v-25.2H354.6z"/>
<path class="st0" d="M354.6,227.8v25.2h-25.2v-25.2H354.6z"/>
<path class="st0" d="M354.6,200.4v25.2h-25.2v-25.2H354.6z"/>
<path class="st0" d="M382,200.4v25.2h-25.2v-25.2H382z"/>
<path class="st0" d="M354.6,173v25.2h-25.2V173H354.6z"/>
<path class="st0" d="M409.5,200.4v25.2h-25.2v-25.2H409.5z"/>
<path class="st0" d="M354.6,145.6v25.2h-25.2v-25.2H354.6z"/>
<path class="st0" d="M436.9,200.4v25.2h-25.2v-25.2H436.9z"/>
<path class="st0" d="M354.6,118.2v25.2h-25.2v-25.2H354.6z"/>
<path class="st0" d="M354.6,90.7V116h-25.2V90.7H354.6z"/>
<path class="st0" d="M464.3,173v25.2h-25.2V173H464.3z"/>
<path class="st0" d="M382,90.7V116h-25.2V90.7H382z"/>
<path class="st0" d="M464.3,145.6v25.2h-25.2v-25.2H464.3z"/>
<path class="st0" d="M409.5,90.7V116h-25.2V90.7H409.5z"/>
<path class="st0" d="M464.3,118.2v25.2h-25.2v-25.2H464.3z"/>
<path class="st0" d="M436.9,90.7V116h-25.2V90.7H436.9z"/>
<path class="st0" d="M126.1,200.4v25.2h-25.2v-25.2H126.1z"/>
<path class="st0" d="M126.1,173v25.2h-25.2V173H126.1z"/>
<path class="st0" d="M126.1,145.6v25.2h-25.2v-25.2H126.1z"/>
<path class="st0" d="M208.4,200.4v25.2h-25.2v-25.2H208.4z"/>
<path class="st0" d="M126.1,118.2v25.2h-25.2v-25.2H126.1z"/>
<path class="st0" d="M208.4,173v25.2h-25.2V173H208.4z"/>
<path class="st0" d="M126.1,90.7V116h-25.2V90.7H126.1z"/>
<path class="st0" d="M208.4,145.6v25.2h-25.2v-25.2H208.4z"/>
<path class="st0" d="M153.5,90.7V116h-25.2V90.7H153.5z"/>
<path class="st0" d="M290.6,200.4v25.2h-25.2v-25.2H290.6z"/>
<path class="st0" d="M208.4,118.2v25.2h-25.2v-25.2H208.4z"/>
<path class="st0" d="M180.9,90.7V116h-25.2V90.7H180.9z"/>
<path class="st0" d="M290.6,173v25.2h-25.2V173H290.6z"/>
<path class="st0" d="M208.4,90.7V116h-25.2V90.7H208.4z"/>
<path class="st0" d="M290.6,145.6v25.2h-25.2v-25.2H290.6z"/>
<path class="st0" d="M235.8,90.7V116h-25.2V90.7H235.8z"/>
<path class="st0" d="M290.6,118.2v25.2h-25.2v-25.2H290.6z"/>
<path class="st0" d="M263.2,90.7V116H238V90.7H263.2z"/>
<path class="st0" d="M66.7,200.4v25.2H41.4v-25.2H66.7z"/>
<path class="st0" d="M66.7,173v25.2H41.4V173H66.7z"/>
<path class="st0" d="M66.7,145.6v25.2H41.4v-25.2H66.7z"/>
<path class="st0" d="M66.7,118.2v25.2H41.4v-25.2H66.7z"/>
<path class="st0" d="M66.7,90.7V116H41.4V90.7H66.7z"/>
<path class="st1" d="M66.7,31.3v25.2H41.4V31.3H66.7z"/>
</svg>
