<?xml version="1.0" encoding="utf-8"?>
<!-- Generator: Adobe Illustrator 25.3.1, SVG Export Plug-In . SVG Version: 6.00 Build 0)  -->
<svg version="1.1"
	 id="svg8" xmlns:cc="http://creativecommons.org/ns#" xmlns:dc="http://purl.org/dc/elements/1.1/" xmlns:inkscape="http://www.inkscape.org/namespaces/inkscape" xmlns:rdf="http://www.w3.org/1999/02/22-rdf-syntax-ns#" xmlns:sodipodi="http://sodipodi.sourceforge.net/DTD/sodipodi-0.dtd" xmlns:svg="http://www.w3.org/2000/svg"
	 xmlns="http://www.w3.org/2000/svg" xmlns:xlink="http://www.w3.org/1999/xlink" x="0px" y="0px" viewBox="0 0 343.1 174.2"
	 style="enable-background:new 0 0 343.1 174.2;" xml:space="preserve">
<style type="text/css">
	.st0{fill:#FFFFFF;}
	.st1{fill-rule:evenodd;clip-rule:evenodd;}
	.st2{fill:#E20A16;}
	.st3{fill:#F5333F;}
	.st4{fill:#333132;}
</style>
<g>
	<rect class="st0" width="343.1" height="174.2"/>
	<path class="st1" d="M164.1,42.5v21.8h4.4v-8.7h2.4c1,0,2-0.1,2.8-0.4c0.9-0.3,1.6-0.7,2.2-1.2c0.6-0.5,1.1-1.2,1.4-2.1
		c0.3-0.8,0.5-1.8,0.5-2.9c0-0.8-0.1-1.6-0.3-2.4c-0.2-0.8-0.5-1.5-1-2.1c-0.5-0.6-1.1-1.1-1.9-1.5c-0.8-0.4-1.7-0.6-2.8-0.6H164.1z
		 M168.5,52.4v-6.6h1.8c1.1,0,1.9,0.3,2.4,0.9c0.5,0.6,0.7,1.4,0.7,2.5c0,1.1-0.3,1.9-0.8,2.5c-0.5,0.5-1.2,0.8-2.1,0.8H168.5z"/>
	<path class="st1" d="M181.4,52.9h3.8v-0.5c0-0.7,0.2-1.2,0.5-1.6c0.3-0.4,0.8-0.6,1.5-0.6c0.7,0,1.2,0.2,1.5,0.5
		c0.3,0.3,0.5,0.8,0.5,1.5c0,0.6-0.1,1-0.4,1.3c-0.2,0.3-0.7,0.5-1.3,0.7l-2.4,0.6c-0.7,0.2-1.4,0.4-1.9,0.7c-0.5,0.3-0.9,0.6-1.3,1
		c-0.3,0.4-0.6,0.9-0.7,1.4c-0.2,0.6-0.2,1.2-0.2,2c0,0.6,0.1,1.1,0.2,1.7c0.1,0.5,0.4,1,0.7,1.5c0.3,0.4,0.7,0.8,1.2,1.1
		c0.5,0.2,1.1,0.4,1.9,0.4c1,0,1.8-0.1,2.5-0.4c0.7-0.3,1.2-0.8,1.7-1.7h0.1c0.1,0.3,0.1,0.6,0.2,0.9c0.1,0.3,0.2,0.6,0.3,0.8h4
		c-0.2-0.5-0.3-0.9-0.4-1.4c-0.1-0.4-0.1-1-0.1-1.8v-8.7c0-0.7-0.1-1.4-0.2-2c-0.1-0.6-0.4-1.2-0.9-1.6c-0.4-0.4-1-0.8-1.8-1
		c-0.8-0.2-1.8-0.4-3.1-0.4c-0.8,0-1.6,0.1-2.3,0.3c-0.7,0.2-1.3,0.5-1.8,0.9c-0.5,0.4-0.9,0.9-1.2,1.6c-0.3,0.6-0.5,1.4-0.5,2.4
		V52.9z M189.1,56.1v3.2c0,0.4-0.1,0.8-0.2,1.2c-0.2,0.3-0.4,0.6-0.6,0.8c-0.2,0.2-0.5,0.4-0.8,0.5c-0.3,0.1-0.6,0.1-0.9,0.1
		c-0.6,0-1-0.2-1.2-0.7c-0.2-0.4-0.4-1-0.4-1.6c0-0.7,0.2-1.3,0.6-1.7c0.4-0.4,1-0.7,1.8-0.9c0.3-0.1,0.6-0.2,0.9-0.3
		C188.5,56.5,188.8,56.3,189.1,56.1z"/>
	<rect x="196.7" y="42.5" class="st1" width="4.2" height="21.8"/>
	<path class="st1" d="M204.4,52.9h3.8v-0.5c0-0.7,0.2-1.2,0.5-1.6c0.3-0.4,0.8-0.6,1.5-0.6c0.7,0,1.2,0.2,1.5,0.5
		c0.3,0.3,0.5,0.8,0.5,1.5c0,0.6-0.1,1-0.4,1.3c-0.2,0.3-0.7,0.5-1.3,0.7l-2.4,0.6c-0.7,0.2-1.4,0.4-1.9,0.7c-0.5,0.3-0.9,0.6-1.3,1
		c-0.3,0.4-0.6,0.9-0.7,1.4c-0.2,0.6-0.2,1.2-0.2,2c0,0.6,0.1,1.1,0.2,1.7c0.1,0.5,0.4,1,0.7,1.5c0.3,0.4,0.7,0.8,1.2,1.1
		c0.5,0.2,1.1,0.4,1.9,0.4c1,0,1.8-0.1,2.5-0.4c0.7-0.3,1.2-0.8,1.7-1.7h0.1c0.1,0.3,0.1,0.6,0.2,0.9c0.1,0.3,0.2,0.6,0.3,0.8h4
		c-0.2-0.5-0.3-0.9-0.4-1.4c-0.1-0.4-0.1-1-0.1-1.8v-8.7c0-0.7-0.1-1.4-0.2-2c-0.1-0.6-0.4-1.2-0.9-1.6c-0.4-0.4-1-0.8-1.8-1
		c-0.8-0.2-1.8-0.4-3.1-0.4c-0.8,0-1.6,0.1-2.3,0.3c-0.7,0.2-1.3,0.5-1.8,0.9c-0.5,0.4-0.9,0.9-1.2,1.6c-0.3,0.6-0.5,1.4-0.5,2.4
		V52.9z M212.1,56.1v3.2c0,0.4-0.1,0.8-0.2,1.2c-0.2,0.3-0.4,0.6-0.6,0.8c-0.2,0.2-0.5,0.4-0.8,0.5c-0.3,0.1-0.6,0.1-0.9,0.1
		c-0.6,0-1-0.2-1.2-0.7c-0.2-0.4-0.4-1-0.4-1.6c0-0.7,0.2-1.3,0.6-1.7c0.4-0.4,1-0.7,1.8-0.9c0.3-0.1,0.6-0.2,0.9-0.3
		C211.5,56.5,211.9,56.3,212.1,56.1z"/>
	<path class="st1" d="M219.7,47.9v16.5h4.2V53.4c0-1.8,0.7-2.7,2.2-2.7c0.6,0,1.1,0.2,1.4,0.5c0.3,0.3,0.4,0.9,0.4,1.8v11.4h4.2
		V52.1c0-1.7-0.4-2.8-1.1-3.6c-0.7-0.7-1.7-1.1-3.1-1.1c-0.9,0-1.7,0.2-2.4,0.6c-0.7,0.4-1.3,1-1.7,1.8h-0.1v-1.9H219.7z"/>
	<path class="st1" d="M247.9,47.9h-4v1.8h-0.1c-0.4-0.9-0.9-1.4-1.6-1.8c-0.6-0.3-1.2-0.5-1.8-0.5c-1.1,0-2.1,0.3-2.8,0.8
		c-0.7,0.5-1.2,1.2-1.6,2c-0.3,0.8-0.6,1.7-0.7,2.7c-0.1,1-0.2,2-0.2,2.9c0,3,0.4,5.1,1.3,6.4c0.9,1.3,2.1,1.9,3.8,1.9
		c0.7,0,1.3-0.2,1.9-0.5c0.6-0.4,1.2-0.9,1.6-1.5h0.1v2.2c0,0.8-0.2,1.5-0.5,2c-0.3,0.6-0.9,0.8-1.8,0.8c-0.3,0-0.5,0-0.8-0.1
		c-0.2-0.1-0.4-0.2-0.6-0.3c-0.4-0.3-0.6-0.7-0.6-1.3h-4c0,1.4,0.5,2.5,1.4,3.2c1,0.8,2.4,1.2,4.2,1.2c2.5,0,4.2-0.5,5.3-1.6
		c1.1-1.1,1.6-2.6,1.6-4.8V47.9z M239.5,56.6c0-1.1,0-2,0.1-2.8c0.1-0.8,0.2-1.4,0.3-1.8c0.2-0.5,0.4-0.8,0.7-1
		c0.3-0.2,0.7-0.3,1.1-0.3c0.8,0,1.4,0.4,1.7,1.3c0.3,0.8,0.5,2.3,0.5,4.3c0,0.7,0,1.3-0.1,1.9c-0.1,0.6-0.2,1.1-0.4,1.5
		c-0.2,0.4-0.4,0.7-0.7,1c-0.3,0.2-0.7,0.3-1.1,0.3s-0.8-0.1-1.1-0.3c-0.3-0.2-0.5-0.6-0.6-0.9c-0.1-0.4-0.2-0.9-0.3-1.4
		C239.5,57.7,239.5,57.2,239.5,56.6z"/>
	<polygon class="st1" points="164.1,77.7 164.1,99.6 168.1,99.6 168.1,82.1 168.2,82.1 172.1,99.6 175.5,99.6 179.4,82.1 
		179.5,82.1 179.5,99.6 183.5,99.6 183.5,77.7 177,77.7 173.8,93.1 173.8,93.1 170.6,77.7 	"/>
	<path class="st1" d="M190.3,92h8.4V91c0-1.3-0.1-2.4-0.2-3.4c-0.2-1-0.5-1.9-0.9-2.6c-0.4-0.7-1.1-1.3-1.9-1.7
		c-0.8-0.4-1.8-0.6-3-0.6c-1.4,0-2.6,0.2-3.4,0.7c-0.9,0.5-1.5,1.1-2,1.9c-0.4,0.8-0.8,1.7-0.9,2.7c-0.1,1-0.2,2.1-0.2,3.2
		c0,1,0,2.1,0.1,3.1c0.1,1,0.4,2,0.8,2.8c0.4,0.8,1,1.5,1.9,2c0.9,0.5,2.1,0.8,3.6,0.8c2,0,3.5-0.5,4.4-1.5c0.9-1,1.4-2.5,1.5-4.4
		h-3.8c-0.1,1-0.3,1.8-0.7,2.3c-0.3,0.5-0.8,0.8-1.6,0.8c-0.4,0-0.7-0.1-1-0.3c-0.3-0.2-0.5-0.5-0.6-0.9c-0.2-0.4-0.3-0.8-0.4-1.2
		c-0.1-0.5-0.1-1-0.1-1.4V92z M194.6,89.5h-4.3v-0.6c0-0.4,0-0.8,0.1-1.2c0.1-0.4,0.2-0.7,0.4-1c0.2-0.3,0.4-0.6,0.6-0.8
		c0.3-0.2,0.6-0.3,1.1-0.3c0.4,0,0.8,0.1,1,0.3c0.3,0.2,0.5,0.4,0.6,0.8c0.2,0.3,0.3,0.7,0.3,1.2C194.6,88.3,194.6,88.8,194.6,89.5z
		"/>
	<path class="st1" d="M201.3,83.1v16.5h4.2v-9.9c0-0.6,0.1-1,0.3-1.4c0.2-0.4,0.4-0.7,0.7-0.9c0.3-0.2,0.6-0.4,1-0.5
		c0.4-0.1,0.7-0.2,1.1-0.2c0.2,0,0.4,0,0.6,0c0.2,0,0.4,0,0.7,0v-4c-0.1,0-0.3,0-0.4,0c-0.1,0-0.2,0-0.4,0c-0.9,0-1.6,0.2-2.2,0.7
		c-0.6,0.5-1.1,1.1-1.6,1.9h-0.1v-2.2H201.3z"/>
	<path class="st1" d="M213,88.1h3.8v-0.5c0-0.7,0.2-1.2,0.5-1.6c0.3-0.4,0.8-0.6,1.5-0.6c0.7,0,1.2,0.2,1.5,0.6
		c0.3,0.3,0.5,0.8,0.5,1.5c0,0.5-0.1,1-0.4,1.3c-0.2,0.3-0.7,0.5-1.3,0.7l-2.4,0.6c-0.7,0.2-1.4,0.4-1.9,0.7c-0.5,0.3-0.9,0.6-1.3,1
		c-0.3,0.4-0.6,0.9-0.7,1.4c-0.2,0.5-0.2,1.2-0.2,2c0,0.5,0.1,1.1,0.2,1.7c0.1,0.6,0.4,1,0.7,1.5c0.3,0.4,0.7,0.8,1.2,1.1
		c0.5,0.2,1.1,0.4,1.9,0.4c1,0,1.8-0.1,2.5-0.4c0.7-0.3,1.2-0.8,1.7-1.7h0.1c0.1,0.3,0.1,0.6,0.2,0.9c0.1,0.3,0.2,0.6,0.3,0.8h4
		c-0.2-0.5-0.3-0.9-0.4-1.4c-0.1-0.4-0.1-1-0.1-1.8v-8.7c0-0.7-0.1-1.4-0.2-2c-0.1-0.6-0.4-1.2-0.9-1.6c-0.4-0.4-1-0.8-1.8-1
		c-0.8-0.2-1.8-0.4-3.1-0.4c-0.8,0-1.6,0.1-2.3,0.3c-0.7,0.2-1.3,0.4-1.8,0.9c-0.5,0.4-0.9,0.9-1.2,1.6c-0.3,0.6-0.5,1.4-0.5,2.4
		V88.1z M220.8,91.3v3.2c0,0.4-0.1,0.8-0.2,1.2c-0.2,0.3-0.4,0.6-0.6,0.8c-0.2,0.2-0.5,0.4-0.8,0.5c-0.3,0.1-0.6,0.1-0.9,0.1
		c-0.6,0-1-0.2-1.2-0.7c-0.2-0.5-0.4-1-0.4-1.6c0-0.7,0.2-1.3,0.5-1.7c0.4-0.4,1-0.7,1.8-0.9c0.3-0.1,0.6-0.2,0.9-0.3
		C220.2,91.7,220.5,91.5,220.8,91.3z"/>
	<path class="st1" d="M227.9,77.7v21.8h4.2V88.6c0-1.8,0.7-2.7,2.2-2.7c0.6,0,1.1,0.2,1.4,0.5c0.3,0.3,0.4,0.9,0.4,1.8v11.3h4.2
		V87.3c0-1.7-0.4-2.8-1.1-3.6c-0.7-0.7-1.7-1.1-3.1-1.1c-1.9,0-3.2,0.7-4,2.1h-0.1v-7.1H227.9z"/>
	<rect x="164.1" y="110.5" class="st1" width="4.4" height="21.8"/>
	<path class="st1" d="M171.9,115.8v16.5h4.2v-10.9c0-1.8,0.7-2.7,2.2-2.7c0.6,0,1.1,0.2,1.4,0.5c0.3,0.3,0.4,0.9,0.4,1.8v11.3h4.2
		v-12.2c0-1.7-0.4-2.8-1.1-3.6c-0.7-0.7-1.7-1.1-3.1-1.1c-0.9,0-1.7,0.2-2.4,0.6c-0.7,0.4-1.3,1-1.7,1.8H176v-1.9H171.9z"/>
	<path class="st1" d="M192.1,124.1c0-1.8,0.1-3.1,0.4-4c0.3-0.9,0.9-1.4,1.8-1.4c0.9,0,1.5,0.5,1.8,1.4c0.3,0.9,0.4,2.2,0.4,4
		c0,1.8-0.1,3.2-0.4,4.1c-0.3,0.9-0.9,1.3-1.8,1.3c-0.9,0-1.5-0.4-1.8-1.3C192.2,127.2,192.1,125.9,192.1,124.1z M196.7,130.6v1.7h4
		v-21.8h-4.2v6.9h-0.1c-0.4-0.7-1-1.1-1.5-1.5c-0.5-0.3-1.2-0.5-2-0.5c-1.7,0-3,0.7-3.8,2.1c-0.8,1.3-1.2,3.5-1.2,6.6
		c0,3.1,0.4,5.3,1.2,6.6c0.8,1.3,2.1,2,3.8,2c0.9,0,1.6-0.2,2.1-0.5C195.6,131.9,196.2,131.3,196.7,130.6L196.7,130.6z"/>
	<path class="st1" d="M204.2,124.1c0,1.4,0.1,2.7,0.3,3.8c0.2,1.1,0.5,2,1,2.7c0.5,0.7,1.2,1.2,2,1.6c0.8,0.3,1.9,0.5,3.2,0.5
		c1.2,0,2.2-0.2,3-0.5c0.8-0.3,1.5-0.9,2-1.6c0.5-0.7,0.9-1.6,1.1-2.7c0.2-1.1,0.3-2.3,0.3-3.7c0-1.4-0.1-2.7-0.3-3.8
		c-0.2-1.1-0.5-2-1-2.7c-0.5-0.7-1.2-1.3-2-1.6c-0.8-0.4-1.9-0.5-3.1-0.5c-1.2,0-2.2,0.2-3.1,0.6c-0.8,0.4-1.5,0.9-2,1.7
		c-0.5,0.7-0.9,1.6-1.1,2.7C204.3,121.4,204.2,122.7,204.2,124.1z M208.4,124.1c0-0.8,0-1.6,0.1-2.3c0-0.7,0.1-1.3,0.3-1.8
		c0.2-0.5,0.4-0.9,0.7-1.2c0.3-0.3,0.7-0.4,1.2-0.4c0.9,0,1.4,0.4,1.8,1.3c0.3,0.9,0.5,2.4,0.5,4.4c0,2.1-0.2,3.5-0.5,4.4
		c-0.3,0.9-0.9,1.3-1.8,1.3c-0.5,0-0.9-0.1-1.2-0.4c-0.3-0.3-0.5-0.7-0.7-1.2c-0.1-0.5-0.2-1.1-0.3-1.8
		C208.4,125.7,208.4,124.9,208.4,124.1z"/>
	<path class="st1" d="M220.6,115.8v16.5h4.2v-10.9c0-1.8,0.7-2.7,2.2-2.7c0.6,0,1.1,0.2,1.4,0.5c0.3,0.3,0.4,0.9,0.4,1.8v11.3h4.2
		v-12.2c0-1.7-0.4-2.8-1.1-3.6c-0.7-0.7-1.7-1.1-3.1-1.1c-0.9,0-1.7,0.2-2.4,0.6c-0.7,0.4-1.3,1-1.7,1.8h-0.1v-1.9H220.6z"/>
	<path class="st1" d="M240.7,124.7h8.4v-0.9c0-1.3-0.1-2.4-0.2-3.4c-0.2-1-0.5-1.9-0.9-2.6c-0.4-0.7-1.1-1.3-1.9-1.7
		c-0.8-0.4-1.8-0.6-3-0.6c-1.4,0-2.6,0.2-3.4,0.7c-0.9,0.5-1.5,1.1-2,1.9c-0.4,0.8-0.8,1.7-0.9,2.7c-0.1,1-0.2,2.1-0.2,3.2
		c0,1,0,2.1,0.1,3.1c0.1,1,0.4,2,0.8,2.8c0.4,0.8,1,1.5,1.9,2c0.9,0.5,2.1,0.8,3.6,0.8c2,0,3.5-0.5,4.4-1.5c0.9-1,1.4-2.5,1.5-4.4
		H245c-0.1,1-0.3,1.8-0.7,2.3c-0.3,0.5-0.8,0.8-1.6,0.8c-0.4,0-0.7-0.1-1-0.3c-0.3-0.2-0.5-0.5-0.6-0.9c-0.2-0.4-0.3-0.8-0.4-1.2
		c-0.1-0.5-0.1-0.9-0.1-1.4V124.7z M245,122.2h-4.3v-0.6c0-0.4,0-0.8,0.1-1.2c0.1-0.4,0.2-0.7,0.4-1c0.2-0.3,0.4-0.6,0.6-0.8
		c0.3-0.2,0.6-0.3,1.1-0.3c0.4,0,0.8,0.1,1,0.3c0.3,0.2,0.5,0.4,0.6,0.8c0.2,0.3,0.3,0.7,0.3,1.2C245,121,245,121.6,245,122.2z"/>
	<path class="st1" d="M256.3,126.9h-3.8v0.6c0,0.8,0.1,1.5,0.3,2.2c0.2,0.6,0.5,1.2,0.9,1.6c0.5,0.4,1.1,0.8,1.9,1
		c0.8,0.2,1.8,0.3,3,0.3c0.9,0,1.7-0.1,2.4-0.3c0.8-0.2,1.4-0.5,1.9-0.9c0.5-0.4,1-1,1.3-1.6c0.3-0.7,0.5-1.4,0.5-2.3
		c0-1.2-0.3-2.2-0.8-2.9c-0.5-0.7-1.5-1.3-2.8-1.8l-2.5-0.9c-0.7-0.2-1.2-0.5-1.5-0.8c-0.2-0.3-0.4-0.7-0.4-1.1c0-0.6,0.2-1,0.6-1.3
		c0.4-0.3,0.9-0.5,1.4-0.5c0.7,0,1.2,0.2,1.4,0.6c0.3,0.4,0.4,1,0.4,1.9h3.8v-0.7c0-1.5-0.5-2.6-1.4-3.5c-0.9-0.8-2.3-1.2-4.3-1.2
		c-1.1,0-2,0.1-2.8,0.4c-0.8,0.3-1.4,0.6-1.9,1.1c-0.5,0.5-0.8,1-1.1,1.6c-0.2,0.6-0.3,1.2-0.3,1.9c0,1.2,0.3,2.1,0.9,2.9
		c0.6,0.7,1.5,1.3,2.6,1.7l3,1.1c0.4,0.2,0.8,0.4,1.1,0.7c0.3,0.3,0.5,0.7,0.5,1.2c0,0.7-0.2,1.1-0.6,1.5c-0.4,0.3-0.9,0.5-1.6,0.5
		c-0.7,0-1.3-0.2-1.7-0.6c-0.4-0.4-0.6-1-0.6-1.7V126.9z"/>
	<path class="st1" d="M268.1,115.8v16.5h4.2v-16.5H268.1z M268.1,110.5v3.6h4.2v-3.6H268.1z"/>
	<path class="st1" d="M276.3,120.9h3.8v-0.5c0-0.7,0.2-1.2,0.5-1.6c0.3-0.4,0.8-0.6,1.5-0.6c0.7,0,1.2,0.2,1.5,0.6
		c0.3,0.3,0.5,0.8,0.5,1.5c0,0.6-0.1,1-0.4,1.3c-0.2,0.3-0.7,0.5-1.3,0.7l-2.4,0.6c-0.7,0.2-1.4,0.4-1.9,0.7c-0.5,0.3-0.9,0.6-1.3,1
		c-0.3,0.4-0.6,0.9-0.7,1.4c-0.2,0.5-0.2,1.2-0.2,2c0,0.6,0.1,1.1,0.2,1.7c0.1,0.5,0.4,1,0.7,1.5c0.3,0.4,0.7,0.8,1.2,1.1
		c0.5,0.2,1.1,0.4,1.9,0.4c1,0,1.8-0.1,2.5-0.4c0.7-0.3,1.2-0.8,1.7-1.7h0.1c0.1,0.3,0.1,0.6,0.2,0.9c0.1,0.3,0.2,0.6,0.3,0.8h4
		c-0.2-0.5-0.3-0.9-0.4-1.4c-0.1-0.4-0.1-1-0.1-1.8v-8.7c0-0.7-0.1-1.4-0.2-2c-0.1-0.6-0.4-1.2-0.9-1.6c-0.4-0.4-1-0.8-1.8-1
		c-0.8-0.2-1.8-0.4-3.1-0.4c-0.8,0-1.6,0.1-2.3,0.3c-0.7,0.2-1.3,0.4-1.8,0.9c-0.5,0.4-0.9,0.9-1.2,1.6c-0.3,0.6-0.5,1.4-0.5,2.4
		V120.9z M284,124.1v3.2c0,0.4-0.1,0.8-0.2,1.2c-0.2,0.3-0.4,0.6-0.6,0.8c-0.2,0.2-0.5,0.4-0.8,0.5c-0.3,0.1-0.6,0.1-0.9,0.1
		c-0.6,0-1-0.2-1.2-0.7c-0.2-0.4-0.4-1-0.4-1.6c0-0.7,0.2-1.3,0.6-1.7c0.4-0.4,1-0.7,1.8-0.9c0.3-0.1,0.6-0.2,0.9-0.3
		C283.4,124.5,283.7,124.3,284,124.1z"/>
	<polygon class="st2" points="109.8,79.9 127.9,79.9 127.9,98 109.8,98 109.8,116.1 91.7,116.1 91.7,98 73.5,98 73.5,79.9 
		91.7,79.9 91.7,61.7 109.8,61.7 	"/>
	<path class="st2" d="M57.2,75.9c-3.6,11.2,3.6,21.5,13.7,23.8c-7,7.9-6.4,20.6,2.9,27.3c9.6,6.8,21.4,3,26.9-5.7
		c5.4,8.6,17.4,12.6,26.9,5.7c9.5-6.9,10-19.3,2.9-27.3c10.1-2.3,17.3-12.6,13.7-23.8c-3.6-11.2-15.7-15.3-25.1-11.2
		c0-0.6,0.1-1.3,0.1-1.9c0-10.2-8.3-18.5-18.5-18.5c-10.2,0-18.5,8.3-18.5,18.5c0,0.6,0,1.3,0.1,1.9C72.3,60.5,60.9,64.7,57.2,75.9z
		 M67.9,100.6C57.7,97,52.1,85.8,55.5,75.3C58.9,64.9,70,59.1,80.5,62.1c0.3-10.9,9.3-19.6,20.3-19.6c11,0,19.9,8.7,20.3,19.6
		c10.5-3.1,21.5,2.8,24.9,13.2c3.4,10.4-2.2,21.6-12.4,25.3c6.1,9,4,21.3-4.8,27.8c-8.9,6.5-21.2,4.6-27.9-4
		c-6.7,8.6-19,10.4-27.9,4C63.9,122,61.8,109.7,67.9,100.6z"/>
</g>
</svg>
